<svg width="73" height="74" viewBox="0 0 73 74" fill="none" xmlns="http://www.w3.org/2000/svg">
<path d="M36.1566 56.5931C25.5767 56.5931 17 47.7299 17 36.7966C17 25.8632 25.5767 17 36.1566 17C46.7365 17 55.3131 25.8632 55.3131 36.7966C55.3131 38.9701 54.9741 41.0618 54.3478 43.0184C67.3543 67.3399 66.807 67.3399 45.0579 54.3307C42.3984 55.7755 39.3699 56.5931 36.1566 56.5931Z" stroke="#E70FC4" stroke-width="3"/>
<path d="M36.5002 2V9" stroke="#E70FC4" stroke-width="3" stroke-linecap="round"/>
<path d="M36.5002 65V72" stroke="#E70FC4" stroke-width="3" stroke-linecap="round"/>
<path d="M8.50024 37H1.50024" stroke="#E70FC4" stroke-width="3" stroke-linecap="round"/>
<path d="M71.5002 37H64.5002" stroke="#E70FC4" stroke-width="3" stroke-linecap="round"/>
<path opacity="0.5" d="M63.7226 9.77936L55.9456 16.8899" stroke="#E70FC4" stroke-width="3" stroke-linecap="round"/>
<path opacity="0.5" d="M9.27783 9.77936L17.0549 16.8899" stroke="#E70FC4" stroke-width="3" stroke-linecap="round"/>
<path opacity="0.5" d="M16.777 56L9 63.1105" stroke="#E70FC4" stroke-width="3" stroke-linecap="round"/>
<path d="M28.5002 39C29.6048 39 30.5002 38.1046 30.5002 37C30.5002 35.8954 29.6048 35 28.5002 35C27.3957 35 26.5002 35.8954 26.5002 37C26.5002 38.1046 27.3957 39 28.5002 39Z" fill="#E60FC5" fill-opacity="0.5"/>
<path d="M46.5002 39C47.6048 39 48.5002 38.1046 48.5002 37C48.5002 35.8954 47.6048 35 46.5002 35C45.3957 35 44.5002 35.8954 44.5002 37C44.5002 38.1046 45.3957 39 46.5002 39Z" fill="#E60FC5" fill-opacity="0.5"/>
<path d="M37.5002 39C38.6048 39 39.5002 38.1046 39.5002 37C39.5002 35.8954 38.6048 35 37.5002 35C36.3957 35 35.5002 35.8954 35.5002 37C35.5002 38.1046 36.3957 39 37.5002 39Z" fill="#E60FC5" fill-opacity="0.5"/>
</svg>
