<svg width="73" height="74" viewBox="0 0 73 74" fill="none" xmlns="http://www.w3.org/2000/svg">
<g id="SVGRepo_iconCarrier">
<path id="Vector" d="M36.4999 54.5C46.1649 54.5 54 46.665 54 37C54 27.335 46.1649 19.5 36.4999 19.5C26.8349 19.5 19 27.335 19 37C19 38.9214 19.3096 40.7705 19.8817 42.5C8.00002 64 8.50003 64 28.3683 52.5C30.7979 53.7773 33.5645 54.5 36.4999 54.5Z" stroke="#E70FC4" stroke-width="3"/>
<path id="Vector_2" d="M36.4999 2V9" stroke="#E70FC4" stroke-width="3" stroke-linecap="round"/>
<path id="Vector_3" d="M36.5 65V72" stroke="#E70FC4" stroke-width="3" stroke-linecap="round"/>
<path id="Vector_4" d="M8.5 37H1.5" stroke="#E70FC4" stroke-width="3" stroke-linecap="round"/>
<path id="Vector_5" d="M71.5 37H64.5" stroke="#E70FC4" stroke-width="3" stroke-linecap="round"/>
<path id="Vector_6" opacity="0.5" d="M63.7223 9.77936L55.9453 16.8899" stroke="#E70FC4" stroke-width="3" stroke-linecap="round"/>
<path id="Vector_7" opacity="0.5" d="M9.27759 9.77936L17.0546 16.8899" stroke="#E70FC4" stroke-width="3" stroke-linecap="round"/>
<path id="Vector_8" opacity="0.5" d="M63.7223 64.2205L55.9453 56.4428" stroke="#E70FC4" stroke-width="3" stroke-linecap="round"/>
<path id="Vector_9" d="M28.5 39C29.6046 39 30.5 38.1046 30.5 37C30.5 35.8954 29.6046 35 28.5 35C27.3954 35 26.5 35.8954 26.5 37C26.5 38.1046 27.3954 39 28.5 39Z" fill="#E60FC5" fill-opacity="0.5"/>
<path id="Vector_10" d="M46.5 39C47.6046 39 48.5 38.1046 48.5 37C48.5 35.8954 47.6046 35 46.5 35C45.3954 35 44.5 35.8954 44.5 37C44.5 38.1046 45.3954 39 46.5 39Z" fill="#E60FC5" fill-opacity="0.5"/>
<path id="Vector_11" d="M37.5 39C38.6046 39 39.5 38.1046 39.5 37C39.5 35.8954 38.6046 35 37.5 35C36.3954 35 35.5 35.8954 35.5 37C35.5 38.1046 36.3954 39 37.5 39Z" fill="#E60FC5" fill-opacity="0.5"/>
</g>
</svg>
