<svg width="25" height="24" viewBox="0 0 25 24" fill="none" xmlns="http://www.w3.org/2000/svg">
<path d="M5.68024 14.8721C5.68024 15.3643 6.06305 15.6924 6.69196 15.6924H9.39899C9.45367 16.9365 10.438 18.0439 11.8394 18.0439C13.2408 18.0439 14.2252 16.9434 14.2867 15.6924H16.9869C17.6158 15.6924 17.9986 15.3643 17.9986 14.8721C17.9986 14.209 17.3492 13.6279 16.7818 13.0537C16.3443 12.6094 16.2349 11.7002 16.1734 10.9072C16.1119 8.3916 15.4351 6.75098 13.7261 6.12891C13.5005 5.28125 12.7964 4.61816 11.8394 4.61816C10.8824 4.61816 10.1851 5.28125 9.9527 6.12891C8.24371 6.75098 7.56696 8.3916 7.50543 10.9072C7.45074 11.7002 7.33453 12.6094 6.89703 13.0537C6.32965 13.6279 5.68024 14.209 5.68024 14.8721ZM7.03375 14.6533V14.5713C7.17047 14.3867 7.55328 14.0176 7.88141 13.6416C8.33942 13.1289 8.55817 12.2607 8.61285 11.0098C8.67438 8.25488 9.50153 7.35938 10.5884 7.06543C10.7525 7.02441 10.8414 6.94922 10.8482 6.77832C10.8755 6.1084 11.2515 5.65039 11.8394 5.65039C12.4273 5.65039 12.8101 6.1084 12.8306 6.77832C12.8443 6.94922 12.9332 7.02441 13.0904 7.06543C14.1773 7.35938 15.0045 8.25488 15.066 11.0098C15.1275 12.2607 15.3394 13.1289 15.7974 13.6416C16.1324 14.0176 16.5084 14.3867 16.6382 14.5713V14.6533H7.03375ZM10.4791 15.6924H13.2066C13.1588 16.5469 12.605 17.0938 11.8394 17.0938C11.0738 17.0938 10.5269 16.5469 10.4791 15.6924Z" fill="white" fill-opacity="0.6"/>
</svg>
