<svg width="25" height="24" viewBox="0 0 25 24" fill="none" xmlns="http://www.w3.org/2000/svg">
<path d="M7.67273 18.1602C8.54773 18.1602 10.3524 17.2852 11.6786 16.335C16.204 16.4443 19.5946 13.8398 19.5946 10.4287C19.5946 7.14746 16.3065 4.50879 12.2118 4.50879C8.11023 4.50879 4.82214 7.14746 4.82214 10.4287C4.82214 12.5547 6.16882 14.4414 8.21277 15.3984C7.91882 15.9521 7.39246 16.6973 7.10535 17.0801C6.74304 17.5586 6.96863 18.1602 7.67273 18.1602ZM8.38367 17.0049C8.32214 17.0322 8.2948 16.9912 8.33582 16.9365C8.69128 16.5059 9.19714 15.8428 9.42273 15.4189C9.6073 15.0771 9.55261 14.7764 9.14246 14.5781C7.13269 13.6416 5.97058 12.1445 5.97058 10.4287C5.97058 7.79688 8.7323 5.65039 12.2118 5.65039C15.6844 5.65039 18.4462 7.79688 18.4462 10.4287C18.4462 13.0674 15.6844 15.2139 12.2118 15.2139C12.0819 15.2139 11.8905 15.207 11.6444 15.2002C11.3641 15.2002 11.1591 15.2822 10.913 15.4805C10.12 16.0547 8.96472 16.7725 8.38367 17.0049Z" fill="white" fill-opacity="0.6"/>
</svg>
