<svg width="24" height="24" viewBox="0 0 24 24" fill="none" xmlns="http://www.w3.org/2000/svg">
<path d="M5.71216 17.3193H16.8616C18.2288 17.3193 18.9192 16.6289 18.9192 15.2822V7.39355C18.9192 6.04688 18.2288 5.35645 16.8616 5.35645H5.71216C4.34497 5.35645 3.64771 6.04004 3.64771 7.39355V15.2822C3.64771 16.6357 4.34497 17.3193 5.71216 17.3193ZM5.74634 16.1982C5.11743 16.1982 4.7688 15.8633 4.7688 15.207V7.46191C4.7688 6.80566 5.11743 6.4707 5.74634 6.4707H16.8274C17.4495 6.4707 17.8049 6.80566 17.8049 7.46191V15.207C17.8049 15.8633 17.4495 16.1982 16.8274 16.1982H5.74634ZM14.6877 11.2285C15.5354 11.2285 16.2327 10.5381 16.2327 9.67676C16.2327 8.82227 15.5354 8.125 14.6877 8.125C13.8264 8.125 13.136 8.82227 13.136 9.67676C13.136 10.5381 13.8264 11.2285 14.6877 11.2285ZM6.79224 9.34863H10.8801C11.1399 9.34863 11.3381 9.13672 11.3381 8.88379C11.3381 8.63086 11.1399 8.42578 10.8801 8.42578H6.79224C6.53247 8.42578 6.33423 8.63086 6.33423 8.88379C6.33423 9.13672 6.53247 9.34863 6.79224 9.34863ZM6.79224 11.0645H9.77271C10.0325 11.0645 10.2375 10.8662 10.2375 10.6064C10.2375 10.3535 10.0325 10.1484 9.77271 10.1484H6.79224C6.53247 10.1484 6.33423 10.3535 6.33423 10.6064C6.33423 10.8662 6.53247 11.0645 6.79224 11.0645Z" fill="white" fill-opacity="0.6"/>
</svg>
