<svg width="24" height="24" viewBox="0 0 24 24" fill="none" xmlns="http://www.w3.org/2000/svg">
<path d="M10.969 19.7109H12.5471C13.1487 19.7109 13.6096 19.3438 13.7502 18.7656L14.0862 17.3047L14.3362 17.2188L15.6096 18C16.1174 18.3203 16.7034 18.2422 17.1331 17.8125L18.2268 16.7266C18.6565 16.2969 18.7346 15.7031 18.4143 15.2031L17.6174 13.9375L17.7112 13.7031L19.1721 13.3594C19.7424 13.2188 20.1174 12.75 20.1174 12.1562V10.6094C20.1174 10.0156 19.7502 9.54688 19.1721 9.40625L17.7268 9.05469L17.6252 8.80469L18.4221 7.53906C18.7424 7.03906 18.6643 6.45312 18.2346 6.01562L17.1409 4.92188C16.719 4.5 16.1331 4.42188 15.6252 4.73438L14.3518 5.51562L14.0862 5.41406L13.7502 3.95312C13.6096 3.375 13.1487 3.00781 12.5471 3.00781H10.969C10.3674 3.00781 9.90649 3.375 9.76587 3.95312L9.42212 5.41406L9.15649 5.51562L7.89087 4.73438C7.38306 4.42188 6.78931 4.5 6.36743 4.92188L5.28149 6.01562C4.85181 6.45312 4.76587 7.03906 5.09399 7.53906L5.88306 8.80469L5.78931 9.05469L4.34399 9.40625C3.76587 9.54688 3.39868 10.0156 3.39868 10.6094V12.1562C3.39868 12.75 3.77368 13.2188 4.34399 13.3594L5.80493 13.7031L5.89087 13.9375L5.10181 15.2031C4.77368 15.7031 4.85962 16.2969 5.28931 16.7266L6.37524 17.8125C6.80493 18.2422 7.39868 18.3203 7.90649 18L9.17212 17.2188L9.42212 17.3047L9.76587 18.7656C9.90649 19.3438 10.3674 19.7109 10.969 19.7109ZM11.094 18.4922C10.9612 18.4922 10.8909 18.4375 10.8674 18.3125L10.3987 16.375C9.92212 16.2578 9.47681 16.0703 9.14087 15.8594L7.43774 16.9062C7.34399 16.9766 7.24243 16.9609 7.14868 16.8672L6.22681 15.9453C6.14087 15.8594 6.13306 15.7656 6.19556 15.6562L7.24243 13.9688C7.06274 13.6406 6.85962 13.1953 6.73462 12.7188L4.79712 12.2578C4.67212 12.2344 4.61743 12.1641 4.61743 12.0312V10.7266C4.61743 10.5859 4.66431 10.5234 4.79712 10.5L6.72681 10.0312C6.85181 9.52344 7.08618 9.0625 7.22681 8.77344L6.18774 7.08594C6.11743 6.96875 6.12524 6.875 6.21118 6.78125L7.14087 5.875C7.23462 5.78125 7.32056 5.76562 7.43774 5.83594L9.12524 6.85938C9.46118 6.67188 9.93774 6.47656 10.4065 6.34375L10.8674 4.40625C10.8909 4.28125 10.9612 4.22656 11.094 4.22656H12.4221C12.5549 4.22656 12.6252 4.28125 12.6409 4.40625L13.1174 6.35938C13.6018 6.48438 14.0237 6.67969 14.3752 6.86719L16.0706 5.83594C16.1956 5.76562 16.2737 5.78125 16.3752 5.875L17.2971 6.78125C17.3909 6.875 17.3909 6.96875 17.3206 7.08594L16.2815 8.77344C16.4299 9.0625 16.6565 9.52344 16.7815 10.0312L18.719 10.5C18.844 10.5234 18.8987 10.5859 18.8987 10.7266V12.0312C18.8987 12.1641 18.8362 12.2344 18.719 12.2578L16.7737 12.7188C16.6487 13.1953 16.4534 13.6406 16.2659 13.9688L17.3127 15.6562C17.3752 15.7656 17.3752 15.8594 17.2815 15.9453L16.3674 16.8672C16.2659 16.9609 16.1721 16.9766 16.0706 16.9062L14.3674 15.8594C14.0315 16.0703 13.594 16.2578 13.1174 16.375L12.6409 18.3125C12.6252 18.4375 12.5549 18.4922 12.4221 18.4922H11.094ZM11.7581 14.3438C13.3909 14.3438 14.7346 13 14.7346 11.3594C14.7346 9.73438 13.3909 8.39062 11.7581 8.39062C10.1252 8.39062 8.77368 9.73438 8.77368 11.3594C8.77368 12.9922 10.1174 14.3438 11.7581 14.3438ZM11.7581 13.1328C10.7893 13.1328 9.99243 12.3359 9.99243 11.3594C9.99243 10.3984 10.7893 9.60156 11.7581 9.60156C12.7112 9.60156 13.5081 10.3984 13.5081 11.3594C13.5081 12.3281 12.7112 13.1328 11.7581 13.1328Z" fill="#EBEBF5" fill-opacity="0.6"/>
</svg>
